<?xml version="1.0" encoding="UTF-8"?>
<svg id="_图层_1" data-name="图层 1" xmlns="http://www.w3.org/2000/svg" viewBox="0 0 877.11 732.04">
  <defs>
    <style>
      .cls-1 {
        fill: #ec1f25;
      }
    </style>
  </defs>
  <path class="cls-1" d="M452.09,495.98c1.51,0,1.85-3.01,2.26-4.23,12.1-36.78,21.8-74.45,33.68-111.32,6.82-13.38,28.96-4.35,40.56-8.44l38.63-73.37c5.48-7.01,15.62-7.66,21.27-.56l43.25,74.96,233.86-.07c15.12,2.23,15.55,24.18,0,26.05l-242.79-.25-8.19-4.81c-12.08-21.01-23.21-42.76-36.53-62.96l-30.82,59.69c-8.16,14.35-26.07,5.32-38.71,9.29l-45.7,147.29c-4.91,12.65-21.81,12.53-25.3-1.26l-71.49-327.01-9.71,31.78c-18.16,64.4-35.2,129.27-54.83,193.17-6,8.14-14.45,8.95-21.99,2.09l-52.48-71.03c-1.5-.42-1.28,0-1.98.61-8.4,7.27-18.4,22.45-29.46,23.43l-184.06-.02c-15.35-2.59-15.47-23.38,0-26.05h180c9.51-7.73,18.35-17.06,27.57-25.43,6.25-4.08,12.74-2.79,18.37,1.54,16.06,20.69,31.73,42.02,48.58,61.91l68.53-247.98c4.06-10.64,16.88-11.63,23.48-2.53,24.42,106.54,47.89,213.63,71.53,320.47,1.09,4.91,1.69,10.07,2.48,15.03Z"/>
  <path class="cls-1" d="M256.88,1.28c72.33-3.35,136.57,35.16,179.84,90.64,1.62.28,12.57-14.47,14.85-16.94,173.54-188.41,443.98,9.98,358.26,245.26-2.1,5.76-8.82,24.16-11.88,28.12-5.46,7.07-26.44,7.02-26.42-2.87,0-3.66,7.8-16.3,9.73-20.82,29.08-68.28,27.14-144.11-12.76-207.59C699.25,6.91,556.29-1.1,469.05,93.46c-6.79,7.36-16.45,22.74-22.95,28.05-6.76,5.51-13.55,4.36-19.55-1.49-12.24-11.95-21.68-27.97-35.46-40.54C229.59-67.87,1,122.77,90.9,318.66c2.46,5.37,13.75,23.84,13.21,27.76-.52,3.72-8.38,7.2-11.65,7.51-14.07,1.33-18.74-12.83-23.56-23.28C1.62,184.72,92.35,8.91,256.88,1.28Z"/>
  <path class="cls-1" d="M156.77,423.3c79.84,105.67,174.47,200.7,280.83,279.7,107.36-78.45,203.56-172.41,282.45-279.55,7.93-7.06,23.64-6.47,26.64,5.06-71.57,102.19-161.91,193.7-260.15,270.44-8.71,6.8-37.06,30.26-45.64,32.35-1.5.36-2.63.79-4.28.73-6.7-.21-24.23-14.94-30.43-19.65-92-69.87-186.79-164.4-256.5-256.5-3.99-5.27-17.3-21.2-19.06-25.94-4.61-12.42,18.25-13.38,26.14-6.64Z"/>
</svg>